<svg version="1" xmlns="http://www.w3.org/2000/svg" width="682.667" height="682.667" viewBox="0 0 512.000000 512.000000"><path d="M237.9 31.4c-.2.2-3.5.7-7.4 1.1-3.8.3-8.8 1-11 1.5-2.2.5-6 1.2-8.5 1.5-2.4.4-4.8.9-5.3 1.2-.4.3-2.3.7-4 1-5.6.8-29.8 9.3-39.6 13.9C157 54 152.4 56 152 56c-.5 0-1 .3-1.2.7-.1.5-2.8 2.1-5.8 3.7-6.4 3.4-20.2 12.4-21.2 14-.5.7-.8.7-.8.1 0-.7-.3-.6-.8 0-.4.6-2.3 2.3-4.2 3.8-18.9 14.9-36.7 34.2-50.3 54.5-7.1 10.7-18.5 33.4-23.2 46.5-3.6 10.1-8.8 29.2-9.9 36.2-1 6.5-1.6 10.3-2.2 13.7-1.2 7-1.1 43.5.1 52.8 1.6 12.1 3.3 21.1 5.1 28 .9 3 1.7 6.6 2 7.9.3 1.3 1 3.4 1.6 4.5.6 1.2 1.1 2.3 1.1 2.6-.3 4 13.3 34.7 20 45.3 2 3.1 3.7 6 3.7 6.2 0 .8 7.4 11 8.2 11.3.5.2.8 1 .8 1.8s.5 1.4 1 1.4c.6 0 1 .6 1 1.4 0 .8.4 1.6.8 1.8.5.1 3.5 3.4 6.7 7.3 11.2 13.3 27.1 28 41 37.9 5.7 4 22.7 14.5 23.5 14.4.3 0 2.8 1.3 5.5 2.9 5.1 3 23.9 10.8 33 13.6 7.9 2.5 23.5 6.4 29 7.3 2.8.4 5.5.8 6 .9 12.6 2.7 51.2 2.7 66.5 0 1.4-.2 4.3-.7 6.5-1 2.2-.4 4.5-.8 5-.9.6-.2 2.8-.7 5-1.1 2.2-.5 4.2-1 4.5-1 11.8-2.7 41.6-13.6 43.1-15.8.3-.5.8-.8 1-.6.9.5 22.1-11.3 24.7-13.8.7-.7 1.7-1.3 2.1-1.3.7 0 2.2-1.1 6.8-5 .7-.5 1.5-1 1.9-1 3.2 0 40.4-35.8 40.4-38.9 0-.6.3-1.1.8-1.1.9 0 11.2-13.6 11.2-14.9 0-.5.4-1.1.8-1.3 1.1-.4 6.9-9.9 11.5-18.8 2.1-4.1 4.2-7.9 4.6-8.5 1.1-1.4 5.3-12.3 5.1-13.1-.1-.4.2-1 .7-1.3.9-.6 7.7-20.2 8.7-25.1.3-1.4 1.2-5.2 2-8.5s1.7-8 2.1-10.5c.4-2.4.8-4.7 1-5 1.7-2.8 2.7-46 1.2-58.5-.5-5.2-2.5-16.8-4.2-24.5-.2-1.4-.7-3.4-.9-4.5-.2-1.1-.9-3.2-1.5-4.8-.6-1.5-.9-2.7-.6-2.7.2 0-.8-3.3-2.1-7.3-1.4-3.9-2.7-7.7-2.8-8.2-.5-1.8-6.2-15.8-7.5-18.5-3.4-6.8-9.6-18.6-10.1-19-.7-.7-2.8-4.1-4.3-7-.6-1.4-1.7-3.2-2.4-4-.6-.8-4-5.4-7.6-10.1-9.1-12.3-26.2-30.5-34.7-36.9-1.8-1.4-4.4-3.5-5.9-4.8-1.4-1.3-4.5-3.6-6.8-5.3-14.4-9.9-17.8-11.9-32.4-19.3-9-4.5-14.3-6.7-29.9-12.4-4.7-1.7-17-5-17-4.5 0 .2-.8 0-1.7-.6-1-.5-6.1-1.6-11.3-2.4-5.2-.9-11.1-1.9-13-2.2-3.7-.7-44.5-1.6-45.1-1.1z"/></svg>